<svg width="136" height="20" viewBox="0 0 136 20" fill="none" xmlns="http://www.w3.org/2000/svg">
<path fill-rule="evenodd" clip-rule="evenodd" d="M120.735 5.26442H117.326V6.76853C116.716 6.15018 116.051 5.68641 115.333 5.37722C114.614 5.06806 113.845 4.91347 113.026 4.91345C111.246 4.91347 109.734 5.58614 108.489 6.93148C107.244 8.27684 106.621 10.0024 106.621 12.1081C106.621 14.1387 107.265 15.8371 108.552 17.2034C109.838 18.5696 111.363 19.2527 113.127 19.2527C113.912 19.2527 114.641 19.1127 115.314 18.8328C115.986 18.5529 116.657 18.0954 117.326 17.4603V18.9017H120.735V5.26442ZM111.083 9.19392C111.785 8.44605 112.667 8.07211 113.728 8.0721C114.814 8.07211 115.713 8.43979 116.423 9.17512C117.133 9.91048 117.488 10.8714 117.488 12.058C117.488 13.2697 117.133 14.2494 116.423 14.9973C115.713 15.7452 114.819 16.1191 113.741 16.1191C112.696 16.1191 111.817 15.7389 111.102 14.9785C110.388 14.2181 110.031 13.2488 110.031 12.0705C110.031 10.9007 110.382 9.94181 111.083 9.19392ZM123.08 5.26442H126.514V18.9017H123.08V5.26442ZM131.507 5.26442H128.574V18.9017H131.971V13.3866L131.958 12.7223C131.958 10.8171 132.14 9.53862 132.504 8.88683C132.867 8.23506 133.312 7.90917 133.839 7.90915C134.098 7.90917 134.428 8.00944 134.829 8.20998L135.894 5.26442C135.409 5.03046 134.946 4.91347 134.503 4.91345C133.876 4.91347 133.3 5.08895 132.773 5.43989C132.247 5.79087 131.825 6.30477 131.507 6.98162V5.26442Z" fill="#FBB040"/>
<path fill-rule="evenodd" clip-rule="evenodd" d="M3.3968 0V6.76853C4.01515 6.15018 4.68365 5.68641 5.40229 5.37722C6.12091 5.06806 6.88969 4.91346 7.7086 4.91345C9.48846 4.91346 11.0009 5.58614 12.246 6.93148C13.4911 8.27683 14.1136 10.0024 14.1136 12.1081C14.1136 14.1387 13.4702 15.8371 12.1834 17.2034C10.8965 18.5696 9.37148 19.2527 7.60833 19.2527C6.82284 19.2527 6.09167 19.1127 5.41482 18.8328C4.73796 18.5529 4.06529 18.0954 3.3968 17.4603V18.9017H0V0H3.3968ZM6.99415 8.0721C5.91619 8.07211 5.02208 8.43979 4.31181 9.17512C3.60153 9.91047 3.24638 10.8714 3.24639 12.058C3.24638 13.2697 3.60153 14.2494 4.31181 14.9973C5.02208 15.7452 5.91619 16.1191 6.99415 16.1191C8.03866 16.1191 8.91816 15.7389 9.63262 14.9785C10.3471 14.2181 10.7043 13.2488 10.7043 12.0705C10.7043 10.9007 10.3533 9.94181 9.65142 9.19392C8.94949 8.44605 8.06373 8.07211 6.99415 8.0721ZM28.7097 5.26441H25.3004V6.76853C24.6903 6.15018 24.026 5.68641 23.3074 5.37722C22.5888 5.06806 21.82 4.91346 21.0011 4.91345C19.2212 4.91346 17.7087 5.58614 16.4637 6.93148C15.2186 8.27683 14.5961 10.0024 14.5961 12.1081C14.5961 14.1387 15.2395 15.8371 16.5263 17.2034C17.8132 18.5696 19.3382 19.2527 21.1014 19.2527C21.8868 19.2527 22.6159 19.1127 23.2886 18.8328C23.9613 18.5529 24.6319 18.0954 25.3004 17.4603V18.9017H28.7097V5.26441ZM21.703 8.0721C20.6418 8.07211 19.7602 8.44605 19.0583 9.19392C18.3563 9.94181 18.0054 10.9007 18.0054 12.0705C18.0054 13.2488 18.3626 14.2181 19.0771 14.9785C19.7915 15.7389 20.671 16.1191 21.7155 16.1191C22.7935 16.1191 23.6876 15.7452 24.3979 14.9973C25.1082 14.2494 25.4633 13.2697 25.4633 12.058C25.4633 10.8714 25.1082 9.91047 24.3979 9.17512C23.6876 8.43979 22.7893 8.07211 21.703 8.0721ZM33.8549 0H30.4581V18.9017H33.8549V13.4242C33.8549 11.9619 33.905 11.026 34.0053 10.6166C34.1975 9.82274 34.5422 9.19602 35.0394 8.73642C35.5366 8.27683 36.1319 8.04704 36.8255 8.04703C37.3603 8.04704 37.8094 8.18492 38.1729 8.46066C38.5364 8.73643 38.7934 9.15424 38.9438 9.71409C39.0942 10.274 39.1694 11.3436 39.1694 12.9229V18.9017H42.5412V9.88958C42.5411 8.31861 42.1442 7.12786 41.3504 6.3173C40.4228 5.38141 39.2822 4.91346 37.9285 4.91345C37.235 4.91346 36.5497 5.05761 35.8729 5.34589C35.196 5.63419 34.5234 6.06662 33.8549 6.64319V0ZM54.4379 5.26441H57.8472V18.9017H54.4379V17.4603C53.7694 18.0954 53.0988 18.5529 52.4261 18.8328C51.7534 19.1127 51.0244 19.2527 50.2389 19.2527C48.4757 19.2527 46.9507 18.5696 45.6639 17.2034C44.377 15.8371 43.7336 14.1387 43.7336 12.1081C43.7336 10.0024 44.3561 8.27683 45.6012 6.93148C46.8463 5.58614 48.3587 4.91346 50.1386 4.91345C50.9575 4.91346 51.7263 5.06806 52.4449 5.37722C53.1635 5.68641 53.8279 6.15018 54.4379 6.76853V5.26441ZM48.1958 9.19392C48.8977 8.44605 49.7793 8.07211 50.8405 8.0721C51.9268 8.07211 52.8251 8.43979 53.5354 9.17512C54.2457 9.91047 54.6008 10.8714 54.6008 12.058C54.6008 13.2697 54.2457 14.2494 53.5354 14.9973C52.8251 15.7452 51.931 16.1191 50.8531 16.1191C49.8085 16.1191 48.929 15.7389 48.2146 14.9785C47.5001 14.2181 47.1429 13.2488 47.1429 12.0705C47.1429 10.9007 47.4939 9.94181 48.1958 9.19392ZM59.558 5.26441H62.9924V6.8312C63.5773 6.18778 64.227 5.70731 64.9415 5.38976C65.6559 5.07224 66.4351 4.91346 67.2791 4.91345C68.1315 4.91346 68.9002 5.12237 69.5854 5.54017C70.2706 5.95799 70.8222 6.568 71.24 7.37017C71.7831 6.568 72.4495 5.95799 73.2392 5.54017C74.0288 5.12237 74.8916 4.91346 75.8275 4.91345C76.7968 4.91346 77.6492 5.13909 78.3845 5.5903C79.1199 6.04155 79.6484 6.63067 79.9701 7.35764C80.2918 8.08464 80.4527 9.26705 80.4527 10.9049V18.9017H77.0058V11.9828C77.0057 10.4369 76.8135 9.3903 76.4292 8.84296C76.0448 8.29564 75.4682 8.02197 74.6994 8.02196C74.1145 8.02197 73.5901 8.18909 73.1264 8.52333C72.6626 8.85759 72.3179 9.31927 72.0923 9.90838C71.8667 10.4975 71.7539 11.4438 71.7539 12.7474V18.9017H68.3069V12.2962C68.3069 11.0762 68.2171 10.1925 68.0375 9.64515C67.8578 9.09784 67.5883 8.69047 67.229 8.42306C66.8697 8.15567 66.4351 8.02197 65.9254 8.02196C65.3572 8.02197 64.8412 8.19118 64.3774 8.5296C63.9137 8.86804 63.5669 9.34225 63.3371 9.95225C63.1073 10.5623 62.9924 11.5232 62.9924 12.8351V18.9017H59.558V5.26441ZM95.7086 5.26441H92.2993V6.76853C91.6893 6.15018 91.0249 5.68641 90.3063 5.37722C89.5877 5.06806 88.8189 4.91346 88 4.91345C86.2201 4.91346 84.7077 5.58614 83.4626 6.93148C82.2175 8.27683 81.595 10.0024 81.595 12.1081C81.595 14.1387 82.2384 15.8371 83.5253 17.2034C84.8121 18.5696 86.3371 19.2527 88.1003 19.2527C88.8858 19.2527 89.6148 19.1127 90.2875 18.8328C90.9602 18.5529 91.6308 18.0954 92.2993 17.4603V18.9017H95.7086V5.26441ZM88.7019 8.0721C87.6407 8.07211 86.7591 8.44605 86.0572 9.19392C85.3553 9.94181 85.0043 10.9007 85.0043 12.0705C85.0043 13.2488 85.3615 14.2181 86.076 14.9785C86.7904 15.7389 87.6699 16.1191 88.7145 16.1191C89.7924 16.1191 90.6865 15.7452 91.3968 14.9973C92.1071 14.2494 92.4622 13.2697 92.4622 12.058C92.4622 10.8714 92.1071 9.91047 91.3968 9.17512C90.6865 8.43979 89.7882 8.07211 88.7019 8.0721ZM103.674 9.28793L105.792 7.16963C105.249 6.44265 104.587 5.88488 103.806 5.4963C103.024 5.10775 102.191 4.91346 101.305 4.91345C100.01 4.91346 98.9465 5.29576 98.115 6.06034C97.2836 6.82495 96.8679 7.74622 96.8679 8.82416C96.8679 10.4954 97.9709 11.8867 100.177 12.9981L101.33 13.5747C102.324 14.076 102.822 14.5899 102.822 15.1164C102.822 15.4005 102.684 15.6512 102.408 15.8684C102.132 16.0857 101.769 16.1943 101.318 16.1943C100.9 16.1943 100.421 16.0502 99.8824 15.7619C99.3434 15.4736 98.8734 15.0955 98.4723 14.6275L96.3665 16.9213C97.5531 18.4756 99.1408 19.2527 101.13 19.2527C102.625 19.2527 103.818 18.8474 104.708 18.0369C105.598 17.2263 106.043 16.2152 106.043 15.0036C106.043 14.0928 105.796 13.2989 105.303 12.6221C104.81 11.9452 103.904 11.2809 102.584 10.6291L101.33 10.0024C100.787 9.735 100.446 9.524 100.309 9.3694C100.171 9.21482 100.102 9.04561 100.102 8.86176C100.102 8.61944 100.21 8.41681 100.428 8.25385C100.645 8.09091 100.946 8.00944 101.33 8.00942C102.032 8.00944 102.813 8.43561 103.674 9.28793Z" fill="#0399D7"/>
</svg>
