<?xml version="1.0" encoding="UTF-8"?>
<svg id="Layer_1" xmlns="http://www.w3.org/2000/svg" xmlns:xlink="http://www.w3.org/1999/xlink" version="1.1" viewBox="0 0 115.04 115.04">
  <!-- Generator: Adobe Illustrator 29.1.0, SVG Export Plug-In . SVG Version: 2.1.0 Build 142)  -->
  <defs>
    <style>
      .st0 {
        fill: url(#linear-gradient);
      }

      .st1 {
        fill: #fff;
      }
    </style>
    <linearGradient id="linear-gradient" x1="57.52" y1="115.04" x2="57.52" y2="0" gradientUnits="userSpaceOnUse">
      <stop offset="0" stop-color="#ef4123"/>
      <stop offset="1" stop-color="#ffc20e"/>
    </linearGradient>
  </defs>
  <g>
    <rect class="st0" width="115.04" height="115.04" rx="10.6" ry="10.6"/>
    <path class="st1" d="M80.78,68.26c0-3.19,2.56-5.29,6.15-5.29,2.56,0,4.74.8,6.53,2.24l-2.01,2.91c-1.56-1.08-3.09-1.73-4.57-1.73s-2.26.68-2.26,1.53v.05c0,1.15.76,1.53,3.79,2.31,3.56.92,5.57,2.21,5.57,5.27v.05c0,3.49-2.66,5.44-6.45,5.44-2.66,0-5.35-.92-7.45-2.81l2.29-2.74c1.58,1.31,3.23,2.13,5.24,2.13,1.58,0,2.54-.63,2.54-1.66v-.05c0-.97-.6-1.48-3.54-2.23-3.54-.91-5.82-1.88-5.82-5.37v-.05M95.84,63.23v17.57h12.39v-3.44h-8.54v-3.69h8.54v-3.44h-8.54v-3.57h8.54v-3.44h-12.39ZM78.4,63.23h-3.86v17.57h3.86v-17.57M74.54,80.79v-17.57h0v17.57h0ZM33.1,63.23v10.07c0,2.78-1.43,4.21-3.79,4.21s-3.79-1.48-3.79-4.34v-9.94h-3.86v10.04c0,5.17,2.88,7.8,7.61,7.8s7.71-2.61,7.71-7.93v-9.91h-3.87ZM57.08,63.23h8.67c2.23,0,3.97.63,5.12,1.78.97.98,1.5,2.36,1.5,4.02v.05c0,2.83-1.53,4.62-3.76,5.44l4.29,6.28h-4.52l-3.76-5.62h-3.04v5.62h-3.87v-10.69c0-5.01-.63-6.88-.63-6.88h0ZM61.59,66.71h0v5.05h3.91c1.88,0,2.96-1,2.96-2.48v-.05c0-1.66-1.16-2.51-3.04-2.51h-3.84ZM50.52,63.22,54.94,61.59c-5.14-21.74-33.06-20.13-37.79-16.46,7.09-2.45,29.34-2.66,33.97,16.46h3.82ZM51.19,63.22v10.82l-8.23-10.82h-3.57v17.57h3.81v-11.17l8.51,11.17h3.29v-17.57h-3.81ZM14.3,48.97c-.8-23.21,22.59-10.68,32.58-18.71,0,0-2.41,1.22-9.7,1.02-15.97-.63-26.7-.99-22.89,17.68h0ZM6.82,68.25v.05c0,3.51,2.29,4.49,5.85,5.4,2.94.75,3.55,1.26,3.55,2.24v.05c0,1.04-.96,1.66-2.54,1.66-2.02,0-3.68-.83-5.27-2.14l-2.29,2.75c2.12,1.89,4.81,2.82,7.48,2.82,3.81,0,6.48-1.97,6.48-5.47v-.05c0-3.07-2.02-4.36-5.59-5.29-3.05-.78-3.81-1.16-3.81-2.32v-.04c0-.86.78-1.54,2.27-1.54s3.02.65,4.59,1.74l2.01-2.92c-1.79-1.44-3.99-2.24-6.55-2.24-3.6,0-6.18,2.12-6.18,5.32M115.03,36.96c-9.75-9.95-27.24-16.9-44.08-18.6-24.39-2.45-34.41,11.33-34.41,11.33,8.77-9.3,28.98-8.43,53.87.07,6.11,2.09,12.46,5.26,17.81,8.26-9.61-3.71-22.16-4.21-29.3-6.09,18.8,4.98,33.09,15.87,36.13,30.81v-25.78h0Z"/>
  </g>
  <g>
    <path class="st1" d="M30.85,94.84c-.05.31-.08.6-.09.86h-1.39c.02-.26.06-.51.12-.76s.11-.51.17-.76h-.03c-.29.51-.65.92-1.07,1.21-.42.29-.95.44-1.58.44-.71,0-1.25-.24-1.62-.72s-.56-1.16-.56-2.03c0-.21.02-.47.05-.79.03-.31.09-.65.17-1.01.08-.36.2-.74.35-1.12.15-.38.34-.74.56-1.09.37-.57.87-1.05,1.5-1.44.63-.39,1.45-.59,2.44-.59.43,0,.86.03,1.32.08.45.06.86.13,1.23.23l-1.36,6.43c-.09.4-.16.76-.21,1.07ZM30.12,88.2c-.21-.03-.41-.04-.6-.04-.6,0-1.12.16-1.54.48-.43.32-.77.72-1.04,1.2s-.46,1.01-.58,1.59c-.12.58-.17,1.12-.17,1.64,0,.57.09.98.28,1.23.19.25.46.38.82.38.31,0,.63-.1.94-.31.31-.21.6-.5.87-.88s.51-.84.73-1.37c.22-.53.39-1.12.53-1.75l.42-1.98c-.22-.09-.44-.15-.65-.18Z"/>
    <path class="st1" d="M35.55,95.69l1.81-8.55h1.41l-1.81,8.55h-1.41ZM39.22,85.15c-.19.18-.41.28-.66.28-.24,0-.43-.08-.58-.24-.15-.16-.23-.35-.23-.59s.09-.46.28-.65c.19-.18.41-.28.66-.28.24,0,.43.08.58.24.15.16.23.35.23.59s-.09.46-.28.65Z"/>
    <path class="st1" d="M46.99,88.36c-.1-.01-.2-.02-.28-.02-.24,0-.48.06-.73.19-.25.13-.49.32-.72.59-.23.26-.44.6-.63,1.02s-.35.9-.47,1.48l-.87,4.08h-1.41l1.43-6.71c.07-.31.13-.64.18-.96.06-.33.1-.62.13-.88h1.36l-.23,1.49h.02c.32-.55.7-.95,1.13-1.22s.89-.4,1.38-.4h.1s.1,0,.15.02l-.3,1.39c-.06-.02-.13-.04-.24-.05Z"/>
    <path class="st1" d="M56.44,95.69l-.2-7.23h-.03l-3.19,7.23h-1.61l-.45-8.55h1.42l.12,7.14h.03l3.14-7.14h1.78l.13,7.14h.03l3.12-7.14h1.41l-4.04,8.55h-1.66Z"/>
    <path class="st1" d="M70.68,94.84c-.05.31-.08.6-.09.86h-1.39c.02-.26.06-.51.12-.76s.11-.51.17-.76h-.03c-.29.51-.65.92-1.07,1.21-.42.29-.95.44-1.58.44-.71,0-1.25-.24-1.62-.72s-.56-1.16-.56-2.03c0-.21.02-.47.05-.79.03-.31.09-.65.18-1.01.08-.36.2-.74.35-1.12.15-.38.34-.74.56-1.09.37-.57.87-1.05,1.5-1.44.63-.39,1.45-.59,2.44-.59.42,0,.86.03,1.32.08.45.06.86.13,1.23.23l-1.36,6.43c-.09.4-.16.76-.21,1.07ZM69.95,88.2c-.21-.03-.41-.04-.6-.04-.6,0-1.12.16-1.54.48-.43.32-.77.72-1.04,1.2s-.46,1.01-.58,1.59c-.12.58-.18,1.12-.18,1.64,0,.57.1.98.29,1.23.19.25.46.38.82.38.31,0,.63-.1.94-.31.31-.21.6-.5.87-.88s.51-.84.73-1.37c.22-.53.39-1.12.53-1.75l.42-1.98c-.22-.09-.44-.15-.65-.18Z"/>
    <path class="st1" d="M76.45,99.62c-.39.3-.85.44-1.38.44-.17,0-.34,0-.5-.02-.17-.02-.31-.04-.44-.07l.34-1.27c.1.06.21.1.33.13.12.03.25.04.41.04.1,0,.2-.01.29-.04s.19-.08.29-.16c.1-.08.19-.19.29-.33.1-.14.9-2.5.9-2.5l-.86-8.69h1.43l.44,6.99h.03l3.25-6.99h1.46l-5.15,10.3c-.37.73-.75,1.88-1.13,2.18Z"/>
    <path class="st1" d="M89.65,88.26c-.27-.07-.57-.1-.9-.1-.5,0-.91.13-1.22.39-.31.26-.46.59-.46.98,0,.24.07.45.21.6.14.16.32.3.54.44s.45.26.7.39c.25.12.48.27.7.44s.4.37.54.6c.14.24.21.53.21.87s-.07.71-.22,1.07c-.15.35-.36.67-.65.95s-.64.5-1.05.67-.89.25-1.43.25c-.45,0-.86-.04-1.23-.13-.37-.09-.7-.21-.98-.37l.35-1.19c.55.37,1.17.55,1.88.55.37,0,.69-.06.96-.18.27-.12.47-.24.6-.38.13-.15.22-.28.27-.4.04-.12.07-.28.07-.47,0-.27-.07-.49-.22-.67-.15-.18-.32-.33-.54-.46-.21-.13-.44-.25-.7-.38s-.48-.27-.7-.43-.39-.36-.54-.58-.22-.51-.22-.87c0-.39.08-.76.24-1.11.16-.35.38-.65.67-.91.29-.26.64-.46,1.04-.6s.86-.22,1.36-.22c.36,0,.68.03.97.08.29.06.55.13.77.22l-.32,1.19c-.2-.1-.44-.18-.71-.25Z"/>
  </g>
</svg>